<svg xmlns="http://www.w3.org/2000/svg" viewBox="0 0 1076.18 1191.27"><defs><style>.cls-1{fill:#e6e6e6;}.cls-2{fill:#1a1a1a;}.cls-3{fill:#d38e16;}.cls-4{fill:#46c6a8;}.cls-5{fill:#3da88c;}.cls-6{fill:#fff;}.cls-7{fill:#ccc;}.cls-8{fill:#ffac00;}.cls-9{fill:none;}.cls-10{fill:#1b4d7a;}</style></defs><title>Asset 8</title><g id="Layer_2" data-name="Layer 2"><g id="Layer_1-2" data-name="Layer 1"><path class="cls-1" d="M1076.18,1051.62c0,134-295.85,130.3-405.11,116.66s-212.53-41-317.63,8.57S55.31,1136.53,14,1081.71c-12.24-16.22-19.48-29-8.66-45.76,21.77-33.76,102.66-54.38,190-64.22,6-.67,12.07-1.31,18.14-1.88l.89-.08c70.72-6.67,143.17-6.49,190-.63,109.25,13.64,182.38,2.91,298.55-15.63,39.95-6.39,90.77-6.94,142-2.37l1.7.15q11.37,1,22.72,2.41C975.53,966.6,1076.18,1001.29,1076.18,1051.62Z"/><path class="cls-2" d="M233.55,310.63c0-163.78,132.77-296.54,296.55-296.54S826.64,146.85,826.64,310.63c0,111.69-61.76,208.94-153,259.51l147.9,512.45H238.63l147.9-512.45C295.31,519.57,233.55,422.32,233.55,310.63Z"/><path class="cls-3" d="M219.9,1096.68H840.29l-150-519.86a310.63,310.63,0,1,0-320.31,0Zm582.93-28.18H257.36L403.18,563.26l-9.82-5.44A282.82,282.82,0,0,1,247.64,310.63c0-155.74,126.71-282.45,282.46-282.45S812.55,154.89,812.55,310.63A282.82,282.82,0,0,1,666.83,557.82L657,563.26Z"/><path class="cls-4" d="M751.17,889.09c-.33,0-.64.12-1,.19-.81.17-1.62.31-2.46.45-1.62.31-3.29.57-4.93.79-1.24.16-2.48.31-3.74.45-1.07.12-2.15.24-3.24.31s-2,.17-3.05.21c-2.53.17-5.1.24-7.68.24a129.09,129.09,0,0,1-57.73-244.56q4.46-2.25,9.15-4.15c1.07-.45,2.16-.88,3.26-1.26Z"/><path class="cls-5" d="M751.17,889.09c-.33,0-.64.12-1,.19-.81.17-1.62.31-2.46.45-1.62.29-3.26.55-4.93.79-1.24.16-2.48.31-3.74.45-1.07.12-2.15.22-3.24.31s-2,.17-3.05.21l-69.85-242c1.46-.81,2.93-1.6,4.44-2.34q4.46-2.25,9.15-4.15c1.07-.45,2.16-.88,3.26-1.26Z"/><polygon class="cls-6" points="353.42 876.39 364.41 895.43 342.43 895.43 353.42 876.39"/><polygon class="cls-6" points="353.42 914.47 364.41 895.43 342.43 895.43 353.42 914.47"/><polygon class="cls-6" points="334.38 895.43 353.42 884.44 353.42 906.42 334.38 895.43"/><polygon class="cls-6" points="372.46 895.43 353.42 884.44 353.42 906.42 372.46 895.43"/><polygon class="cls-6" points="609.84 590.39 620.83 609.43 598.85 609.43 609.84 590.39"/><polygon class="cls-6" points="609.84 628.47 620.83 609.43 598.85 609.43 609.84 628.47"/><polygon class="cls-6" points="590.8 609.43 609.84 598.44 609.84 620.42 590.8 609.43"/><polygon class="cls-6" points="628.88 609.43 609.84 598.44 609.84 620.42 628.88 609.43"/><polygon class="cls-6" points="691.57 948.14 707.88 976.4 675.25 976.4 691.57 948.14"/><polygon class="cls-6" points="691.57 1004.66 707.88 976.4 675.25 976.4 691.57 1004.66"/><polygon class="cls-6" points="663.31 976.4 691.57 960.09 691.57 992.71 663.31 976.4"/><polygon class="cls-6" points="719.83 976.4 691.57 960.09 691.57 992.71 719.83 976.4"/><polygon class="cls-6" points="619.1 81.17 631.56 102.77 606.63 102.77 619.1 81.17"/><polygon class="cls-6" points="619.1 124.36 631.56 102.77 606.63 102.77 619.1 124.36"/><polygon class="cls-6" points="597.51 102.77 619.1 90.3 619.1 115.23 597.51 102.77"/><polygon class="cls-6" points="640.69 102.77 619.1 90.3 619.1 115.23 640.69 102.77"/><circle class="cls-6" cx="457.27" cy="973.68" r="52.98"/><path class="cls-7" d="M419.8,936.21a53,53,0,0,0,74.93,74.93,53.79,53.79,0,0,0,6-7.16A53,53,0,0,1,427,930.2,53.25,53.25,0,0,0,419.8,936.21Z"/><circle class="cls-6" cx="437.89" cy="734.87" r="9.54"/><circle class="cls-6" cx="699.66" cy="468.88" r="8.1"/><circle class="cls-6" cx="320.21" cy="363.9" r="9.54"/><path class="cls-8" d="M487.45,348.47H462v8.72q6.87,3.12,13.94,6.14,11.28,4.79,23,9.21V353Q493.07,350.78,487.45,348.47Z"/><path class="cls-3" d="M508.26,356.54l-3.65-1.34-1-.4v19.5l4.69,1.73Z"/><path class="cls-3" d="M457.27,343.78h19.07c-3.58-1.55-7.11-3.11-10.56-4.68h-13.2v13.72l4.69,2.22Z"/><path class="cls-3" d="M487.45,348.47c-2.33-1-4.64-1.91-6.91-2.87-1.42-.6-2.8-1.21-4.2-1.82H457.27V355l4.68,2.15v-8.72Z"/><path class="cls-3" d="M503.57,374.3V354.8q-2.35-.89-4.68-1.79v19.53l.86.33Z"/><path class="cls-9" d="M503.57,196v15.92q11.59,3.15,23.41,6.87,9.36,3,18.8,6.26c2.63.92,5.24,1.87,7.85,2.82q3.47,1.26,6.92,2.57V196Z"/><path class="cls-9" d="M508.26,356.54c3.25,1.2,6.52,2.39,9.86,3.56q10.38,3.64,20.34,6.75,8.88,2.79,17.4,5.16V347.43l-92-75.86c-6.43-5-9.78-10-11.2-16.52l-.11-.49v-35q-11.24-1.87-21.5-3c-2.32-.25-4.59-.47-6.83-.67q-10.5-.91-19.81-1.06c-1.26,0-2.54,0-3.76,0s-2.36,0-3.51,0c-33.4.54-53.39,8.75-55.82,20.65h0c-2.3,11.19,10.1,29.7,35.46,50.42q2.76,2.25,5.72,4.54,7.22,5.56,15.62,11.27,9.36,6.35,20.18,12.76A502.31,502.31,0,0,0,464,338.3l1.76.8h42.48Z"/><path class="cls-9" d="M596.88,320.77c7.84,6.47,10.73,11.86,10.73,22.29v40.65a333.32,333.32,0,0,0,44.93,4.66c6.3.19,12.22.13,17.7-.16,2.33-.13,4.57-.29,6.74-.49,25-2.32,39.79-9.78,41.87-19.92,2.65-13-14.41-32.61-33.15-48.48q-3.13-2.65-6.3-5.15c-1.58-1.24-3.15-2.46-4.72-3.63a380.5,380.5,0,0,0-41.76-26.85,577.93,577.93,0,0,0-87-39.14c-1.27-.46-2.53-.92-3.81-1.37q-11.64-4.08-22.76-7.5-8-2.48-15.74-4.62v13.12Z"/><path class="cls-9" d="M508.26,376v18.08h47.6v-2.94c-13.59-3.72-27.46-8-41.45-12.94C512.35,377.51,510.3,376.77,508.26,376Z"/><path class="cls-8" d="M514.45,166.89H483.34c-8.25,0-18.59,2.43-21.39,13.91v21.56c13.42,2.48,27.35,5.68,41.62,9.56V196h57v34.44c13.13,5,25.9,10.29,38.2,15.9h8.86V187c0-16.18-10.32-24.81-27.25-24.81H553.94V142.44H514.45Z"/><path class="cls-8" d="M462,221.25v32.28c1,4.16,3.15,7.1,7.76,10.69l.1.08L565.23,343v31.54q15.28,4,29.33,6.79c4.46.88,8.8,1.66,13.05,2.37V343.06c0-10.43-2.89-15.82-10.73-22.29l-93.31-76.59V231.06q-19.05-5.3-36.29-8.77Z"/><path class="cls-8" d="M487.45,348.47q5.63,2.29,11.44,4.54v-4.54Z"/><path class="cls-8" d="M565.23,393.64v9.84H498.89V372.54q-11.7-4.43-23-9.21-7.06-3-13.94-6.14v56.08c2.8,11.49,13.14,13.92,21.39,13.92h31.11v29.13h39.49V431.87h26.42c16.52,0,27.25-8.63,27.25-25.17v-4.12c-11.79-1.93-24-4.42-36.58-7.48C569.11,394.63,567.17,394.14,565.23,393.64Z"/><path class="cls-3" d="M555.86,394.11h-47.6V376l-4.69-1.73v24.49h57v-6.37l-4.69-1.25Z"/><path class="cls-3" d="M509.77,431.87H483.34c-13.95,0-23.45-6.18-26.07-18.06V355l-4.69-2.22v61.5l.11.5c3.05,13.81,14.22,21.74,30.65,21.74h21.74v19.76h4.69Z"/><path class="cls-3" d="M452.69,255.05c1.42,6.55,4.77,11.49,11.2,16.52l92,75.86V372l4.69,1.3V345.22l-93.72-77.31c-5.48-4.27-8.34-8.19-9.56-13.85V220.39c-1.58-.29-3.14-.56-4.69-.82v35Z"/><path class="cls-3" d="M457.27,180.27c2.62-11.89,12.12-18.07,26.07-18.07h26.43V137.75h44.17v4.69h0v-9.37H505.08v24.45H483.34c-16.43,0-27.6,7.92-30.65,21.74l-.11.49v21c1.56.25,3.11.49,4.69.77Z"/><path class="cls-3" d="M503.57,354.8l1,.4,3.65,1.34V339.1H465.78c3.45,1.57,7,3.13,10.56,4.68h27.23Z"/><path class="cls-3" d="M560.55,398.79h-57V374.3l-3.82-1.43-.86-.33v30.94h66.34v-9.84c-1.56-.39-3.12-.81-4.68-1.22Z"/><path class="cls-3" d="M469.81,264.3l-.1-.08c-4.61-3.59-6.76-6.53-7.76-10.69V221.25c-1.57-.3-3.14-.59-4.68-.86v33.67c1.22,5.66,4.08,9.58,9.56,13.85l93.72,77.31v28.09c1.57.43,3.12.84,4.68,1.24V343Z"/><path class="cls-3" d="M487.45,348.47h11.44V353q2.33.9,4.68,1.79v-11H476.34c1.4.61,2.78,1.22,4.2,1.82C482.81,346.56,485.12,347.51,487.45,348.47Z"/><path class="cls-3" d="M483.34,427.19c-8.25,0-18.59-2.43-21.39-13.92V357.19L457.27,355v58.77c2.62,11.88,12.12,18.06,26.07,18.06h26.43v24.45h4.68V427.19Z"/><path class="cls-3" d="M509.77,137.75V162.2H483.34c-13.95,0-23.45,6.18-26.07,18.07v21.22c1.54.27,3.12.58,4.68.87V180.8c2.8-11.48,13.14-13.91,21.39-13.91h31.11V142.44h39.49v-4.69Z"/><path class="cls-10" d="M514.41,378.23c14,4.91,27.86,9.22,41.45,12.94V372q-8.54-2.38-17.4-5.16-10-3.12-20.34-6.75c-3.34-1.17-6.61-2.36-9.86-3.56V376C510.3,376.77,512.35,377.51,514.41,378.23Z"/><path class="cls-10" d="M684.62,296.39c-.92-.71-1.86-1.43-2.81-2.14-1.29-1-2.64-1.93-4-2.89Q669,285,659.14,278.7a503.59,503.59,0,0,0-60.39-32.36h-38.2v-15.9q-3.45-1.31-6.92-2.57c-2.61-1-5.22-1.9-7.85-2.82q-9.43-3.31-18.8-6.26-11.82-3.73-23.41-6.87v19.14q7.74,2.16,15.74,4.62,11.13,3.44,22.76,7.5c1.28.45,2.54.91,3.81,1.37a577.93,577.93,0,0,1,87,39.14,380.5,380.5,0,0,1,41.76,26.85c1.57,1.17,3.14,2.39,4.72,3.63q3.17,2.49,6.3,5.15c18.74,15.87,35.8,35.52,33.15,48.48C716.77,377.94,702,385.4,677,387.72c-2.17.2-4.41.36-6.74.49-5.48.29-11.4.35-17.7.16a333.32,333.32,0,0,1-44.93-4.66v18.87c.84.14,1.7.3,2.54.43a351.4,351.4,0,0,0,35.37,3.84c4.49.25,8.89.4,13.14.43h1.19c1.39,0,2.75,0,4.1,0,2.39,0,4.72-.13,7-.25,36.26-1.94,57.53-13.69,61.76-34.33C737.27,350.37,720.65,324,684.62,296.39Z"/><path class="cls-10" d="M465.78,339.1l-1.76-.8a502.31,502.31,0,0,1-45.69-23.83q-10.81-6.39-20.18-12.76-8.4-5.7-15.62-11.27-3-2.29-5.72-4.54c-25.36-20.72-37.76-39.23-35.46-50.42h0c2.43-11.9,22.42-20.11,55.82-20.65q1.72,0,3.51,0c1.22,0,2.5,0,3.76,0q9.31.15,19.81,1.06c2.24.2,4.51.42,6.83.67q10.25,1.11,21.5,3V200.72c-1.54-.25-3.09-.52-4.61-.76-11.62-1.76-22.75-3-33.27-3.53-2.59-.14-5.16-.25-7.68-.31-1.84-.05-3.68-.11-5.48-.11h-1.2c-43,0-68.21,12-72.85,34.62h0c-4.54,22.16,11.85,48.32,47.45,75.79,1.13.87,2.28,1.75,3.45,2.62.84.63,1.72,1.25,2.57,1.88a410.23,410.23,0,0,0,46.93,29.37q11.91,6.44,24.69,12.54V339.1Z"/><path class="cls-10" d="M560.55,246.34h38.2c-12.3-5.61-25.07-10.94-38.2-15.9Z"/><path class="cls-8" d="M462,221.25l5.33,1q17.21,3.5,36.29,8.77V211.92c-14.27-3.88-28.2-7.08-41.62-9.56Z"/><path class="cls-10" d="M594.56,381.34q-14-2.79-29.33-6.79v19.09c1.94.5,3.88,1,5.8,1.46,12.56,3.06,24.79,5.55,36.58,7.48V383.71C603.36,383,599,382.22,594.56,381.34Z"/><path class="cls-10" d="M555.86,391.17l4.69,1.25V373.31l-4.69-1.3Z"/><path class="cls-3" d="M457.27,220.39v-18.9c-1.58-.28-3.13-.52-4.69-.77v18.85C454.13,219.83,455.69,220.1,457.27,220.39Z"/><path class="cls-3" d="M462,202.36c-1.56-.29-3.14-.6-4.68-.87v18.9c1.54.27,3.11.56,4.68.86Z"/><path class="cls-10" d="M560.55,392.42c1.56.41,3.12.83,4.68,1.22V374.55c-1.56-.4-3.11-.81-4.68-1.24Z"/></g></g></svg>